<?xml version="1.0" standalone="no"?>
<!DOCTYPE svg PUBLIC "-//W3C//DTD SVG 20010904//EN" "http://www.w3.org/TR/2001/REC-SVG-20010904/DTD/svg10.dtd">
<svg version="1.0" xmlns="http://www.w3.org/2000/svg"
    width="600.000000pt" height="359.000000pt" viewBox="0 0 600.000000 359.000000"
    preserveAspectRatio="xMidYMid meet">

    <g transform="translate(0.000000,359.000000) scale(0.100000,-0.100000)"
        fill="#000000" stroke="none">
        <path
            d="M2895 3049 c-305 -25 -565 -146 -786 -368 -197 -196 -310 -413 -354
-681 -25 -149 -17 -368 20 -508 73 -281 216 -502 445 -685 l75 -60 3 497 2
496 165 0 c124 0 175 4 201 15 147 61 210 226 141 368 -31 63 -70 100 -137
131 -41 19 -63 21 -265 21 l-220 0 -3 -57 -3 -57 220 -3 c241 -3 245 -4 295
-72 29 -38 29 -124 0 -162 -50 -68 -54 -69 -295 -72 l-219 -3 0 -422 -1 -422
-44 48 c-129 141 -233 366 -266 581 -18 111 -6 322 24 437 86 330 316 609 622
753 309 147 682 142 995 -13 34 -17 64 -31 66 -31 2 0 4 31 4 69 l0 69 -72 30
c-207 86 -402 118 -613 101z"
            fill="white" />
        <path
            d="M3700 2303 l0 -539 53 -52 c29 -29 56 -52 60 -52 4 0 8 208 9 463 l3
462 68 -85 c87 -108 177 -288 212 -425 51 -196 43 -444 -21 -634 -60 -179
-149 -319 -294 -461 -207 -203 -445 -306 -736 -317 -241 -10 -396 26 -626 145
-5 2 -8 -28 -8 -66 l0 -69 73 -31 c176 -73 320 -102 514 -102 617 0 1138 445
1239 1058 23 140 14 363 -19 493 -59 228 -155 402 -311 567 -60 63 -164 153
-203 176 -10 6 -13 -103 -13 -531z"
            fill="white" />
        <path
            d="M3020 1798 l0 -483 200 200 200 200 200 -200 200 -200 0 80 -1 80
-200 204 -201 204 -139 -139 -139 -138 -2 334 -3 335 -57 3 -58 3 0 -483z"
            fill="white" />
        <path
            d="M2530 1611 c0 -5 36 -72 81 -150 l81 -141 64 0 c35 0 64 3 64 6 0 3
-36 70 -81 150 l-81 144 -64 0 c-35 0 -64 -4 -64 -9z"
            fill="white" />
    </g>
</svg>